<mxfile host="app.diagrams.net" agent="Mozilla/5.0 (Windows NT 10.0; Win64; x64) AppleWebKit/537.36 (KHTML, like Gecko) Chrome/129.0.0.0 Safari/537.36" version="24.7.17">
  <diagram name="Page-1" id="aylyuzyK0qthiXCJrvI8">
    <mxGraphModel dx="993" dy="558" grid="1" gridSize="10" guides="1" tooltips="1" connect="1" arrows="1" fold="1" page="1" pageScale="1" pageWidth="850" pageHeight="1100" math="0" shadow="0">
      <root>
        <mxCell id="0" />
        <mxCell id="1" parent="0" />
        <mxCell id="nHS1gelwQEHCnqTav4-Z-1" value="" style="group" vertex="1" connectable="0" parent="1">
          <mxGeometry x="205" y="190" width="440" height="570" as="geometry" />
        </mxCell>
        <mxCell id="00jVBxkWEW1qKjyxyLZR-5" style="edgeStyle=orthogonalEdgeStyle;rounded=0;orthogonalLoop=1;jettySize=auto;html=1;entryX=0;entryY=0.5;entryDx=0;entryDy=0;" parent="nHS1gelwQEHCnqTav4-Z-1" source="00jVBxkWEW1qKjyxyLZR-1" target="00jVBxkWEW1qKjyxyLZR-2" edge="1">
          <mxGeometry relative="1" as="geometry" />
        </mxCell>
        <mxCell id="00jVBxkWEW1qKjyxyLZR-6" style="edgeStyle=orthogonalEdgeStyle;rounded=0;orthogonalLoop=1;jettySize=auto;html=1;entryX=0;entryY=0.5;entryDx=0;entryDy=0;" parent="nHS1gelwQEHCnqTav4-Z-1" source="00jVBxkWEW1qKjyxyLZR-1" target="00jVBxkWEW1qKjyxyLZR-3" edge="1">
          <mxGeometry relative="1" as="geometry" />
        </mxCell>
        <mxCell id="00jVBxkWEW1qKjyxyLZR-7" style="edgeStyle=orthogonalEdgeStyle;rounded=0;orthogonalLoop=1;jettySize=auto;html=1;entryX=0;entryY=0.5;entryDx=0;entryDy=0;" parent="nHS1gelwQEHCnqTav4-Z-1" source="00jVBxkWEW1qKjyxyLZR-1" target="00jVBxkWEW1qKjyxyLZR-4" edge="1">
          <mxGeometry relative="1" as="geometry" />
        </mxCell>
        <mxCell id="00jVBxkWEW1qKjyxyLZR-1" value="&lt;b&gt;CM Server&lt;/b&gt;" style="rounded=0;whiteSpace=wrap;html=1;fillColor=#f8cecc;strokeColor=#b85450;" parent="nHS1gelwQEHCnqTav4-Z-1" vertex="1">
          <mxGeometry y="130" width="120" height="60" as="geometry" />
        </mxCell>
        <mxCell id="00jVBxkWEW1qKjyxyLZR-2" value="&lt;b&gt;NODE-1&lt;/b&gt;" style="rounded=1;whiteSpace=wrap;html=1;fillColor=#fff2cc;strokeColor=#d6b656;" parent="nHS1gelwQEHCnqTav4-Z-1" vertex="1">
          <mxGeometry x="200" y="40" width="120" height="60" as="geometry" />
        </mxCell>
        <mxCell id="00jVBxkWEW1qKjyxyLZR-3" value="&lt;b&gt;NODE-2&lt;/b&gt;" style="rounded=1;whiteSpace=wrap;html=1;fillColor=#fff2cc;strokeColor=#d6b656;" parent="nHS1gelwQEHCnqTav4-Z-1" vertex="1">
          <mxGeometry x="200" y="130" width="120" height="60" as="geometry" />
        </mxCell>
        <mxCell id="00jVBxkWEW1qKjyxyLZR-4" value="&lt;b&gt;NODE-3&lt;/b&gt;" style="rounded=1;whiteSpace=wrap;html=1;fillColor=#fff2cc;strokeColor=#d6b656;" parent="nHS1gelwQEHCnqTav4-Z-1" vertex="1">
          <mxGeometry x="200" y="220" width="120" height="60" as="geometry" />
        </mxCell>
        <mxCell id="00jVBxkWEW1qKjyxyLZR-8" value="&lt;b&gt;PULL&lt;/b&gt;" style="text;html=1;align=center;verticalAlign=middle;resizable=0;points=[];autosize=1;strokeColor=none;fillColor=none;" parent="nHS1gelwQEHCnqTav4-Z-1" vertex="1">
          <mxGeometry x="150" width="50" height="30" as="geometry" />
        </mxCell>
        <mxCell id="00jVBxkWEW1qKjyxyLZR-9" value="&lt;b&gt;every 30min&lt;/b&gt;" style="text;html=1;align=center;verticalAlign=middle;resizable=0;points=[];autosize=1;strokeColor=none;fillColor=none;" parent="nHS1gelwQEHCnqTav4-Z-1" vertex="1">
          <mxGeometry x="350" y="40" width="90" height="30" as="geometry" />
        </mxCell>
        <mxCell id="00jVBxkWEW1qKjyxyLZR-15" style="edgeStyle=orthogonalEdgeStyle;rounded=0;orthogonalLoop=1;jettySize=auto;html=1;entryX=0;entryY=0.5;entryDx=0;entryDy=0;" parent="nHS1gelwQEHCnqTav4-Z-1" source="00jVBxkWEW1qKjyxyLZR-10" target="00jVBxkWEW1qKjyxyLZR-12" edge="1">
          <mxGeometry relative="1" as="geometry" />
        </mxCell>
        <mxCell id="00jVBxkWEW1qKjyxyLZR-10" value="&lt;b&gt;CM Server&lt;/b&gt;" style="rounded=0;whiteSpace=wrap;html=1;fillColor=#f8cecc;strokeColor=#b85450;" parent="nHS1gelwQEHCnqTav4-Z-1" vertex="1">
          <mxGeometry y="420" width="120" height="60" as="geometry" />
        </mxCell>
        <mxCell id="00jVBxkWEW1qKjyxyLZR-11" value="&lt;b&gt;NODE-1&lt;/b&gt;" style="rounded=1;whiteSpace=wrap;html=1;fillColor=#fff2cc;strokeColor=#d6b656;" parent="nHS1gelwQEHCnqTav4-Z-1" vertex="1">
          <mxGeometry x="200" y="330" width="120" height="60" as="geometry" />
        </mxCell>
        <mxCell id="00jVBxkWEW1qKjyxyLZR-12" value="&lt;b&gt;NODE-1&lt;/b&gt;" style="rounded=1;whiteSpace=wrap;html=1;fillColor=#fff2cc;strokeColor=#d6b656;" parent="nHS1gelwQEHCnqTav4-Z-1" vertex="1">
          <mxGeometry x="200" y="420" width="120" height="60" as="geometry" />
        </mxCell>
        <mxCell id="00jVBxkWEW1qKjyxyLZR-13" value="&lt;b&gt;NODE-1&lt;/b&gt;" style="rounded=1;whiteSpace=wrap;html=1;fillColor=#fff2cc;strokeColor=#d6b656;" parent="nHS1gelwQEHCnqTav4-Z-1" vertex="1">
          <mxGeometry x="200" y="510" width="120" height="60" as="geometry" />
        </mxCell>
        <mxCell id="00jVBxkWEW1qKjyxyLZR-14" style="edgeStyle=orthogonalEdgeStyle;rounded=0;orthogonalLoop=1;jettySize=auto;html=1;entryX=-0.003;entryY=0.62;entryDx=0;entryDy=0;entryPerimeter=0;" parent="nHS1gelwQEHCnqTav4-Z-1" source="00jVBxkWEW1qKjyxyLZR-10" target="00jVBxkWEW1qKjyxyLZR-11" edge="1">
          <mxGeometry relative="1" as="geometry" />
        </mxCell>
        <mxCell id="00jVBxkWEW1qKjyxyLZR-16" style="edgeStyle=orthogonalEdgeStyle;rounded=0;orthogonalLoop=1;jettySize=auto;html=1;entryX=-0.003;entryY=0.647;entryDx=0;entryDy=0;entryPerimeter=0;" parent="nHS1gelwQEHCnqTav4-Z-1" source="00jVBxkWEW1qKjyxyLZR-10" target="00jVBxkWEW1qKjyxyLZR-13" edge="1">
          <mxGeometry relative="1" as="geometry" />
        </mxCell>
        <mxCell id="00jVBxkWEW1qKjyxyLZR-17" value="&lt;b&gt;SSH&lt;/b&gt;" style="text;html=1;align=center;verticalAlign=middle;resizable=0;points=[];autosize=1;strokeColor=none;fillColor=none;" parent="nHS1gelwQEHCnqTav4-Z-1" vertex="1">
          <mxGeometry x="100" y="380" width="50" height="30" as="geometry" />
        </mxCell>
        <mxCell id="00jVBxkWEW1qKjyxyLZR-18" value="&lt;b&gt;PUSH&lt;/b&gt;" style="text;html=1;align=center;verticalAlign=middle;resizable=0;points=[];autosize=1;strokeColor=none;fillColor=none;" parent="nHS1gelwQEHCnqTav4-Z-1" vertex="1">
          <mxGeometry x="340" y="345" width="60" height="30" as="geometry" />
        </mxCell>
        <mxCell id="00jVBxkWEW1qKjyxyLZR-19" value="&lt;b&gt;automatic reset&lt;/b&gt;" style="text;html=1;align=center;verticalAlign=middle;resizable=0;points=[];autosize=1;strokeColor=none;fillColor=none;" parent="nHS1gelwQEHCnqTav4-Z-1" vertex="1">
          <mxGeometry x="330" y="80" width="110" height="30" as="geometry" />
        </mxCell>
      </root>
    </mxGraphModel>
  </diagram>
</mxfile>
